<?xml version="1.0" standalone="no"?>
<!DOCTYPE svg PUBLIC "-//W3C//DTD SVG 20010904//EN"
 "http://www.w3.org/TR/2001/REC-SVG-20010904/DTD/svg10.dtd">
<svg version="1.0" xmlns="http://www.w3.org/2000/svg"
 width="938.000000pt" height="268.000000pt" viewBox="0 0 938.000000 268.000000"
 preserveAspectRatio="xMidYMid meet">

<g transform="translate(0.000000,268.000000) scale(0.100000,-0.100000)"
fill="#000000" stroke="none">
<path d="M766 2640 c-33 -10 -96 -67 -96 -87 0 -8 12 -13 29 -13 56 0 105 -49
138 -139 l9 -24 21 23 c48 50 37 148 -20 196 l-32 27 51 -5 c110 -10 185 -83
229 -222 14 -43 24 -80 23 -82 -2 -1 -53 -8 -113 -14 -340 -34 -612 -102 -782
-198 -67 -37 -148 -117 -173 -169 -30 -63 -30 -142 -1 -207 14 -32 48 -75 95
-120 109 -106 229 -171 300 -164 28 3 24 7 -54 47 -158 81 -242 164 -255 255
-23 153 128 282 425 364 131 37 475 92 570 92 4 0 10 -44 14 -97 12 -168 -20
-462 -83 -767 -52 -248 -74 -336 -86 -336 -16 0 -52 40 -64 73 -10 24 -13 26
-31 15 -11 -7 -27 -27 -35 -44 -23 -50 -19 -89 14 -126 l29 -32 41 37 c23 20
43 37 45 37 2 0 -5 -30 -15 -67 -23 -81 -69 -223 -74 -223 -1 0 -58 27 -126
60 -163 78 -278 111 -389 112 -138 0 -239 -52 -296 -154 -27 -50 -29 -59 -29
-169 l0 -116 42 -85 c32 -64 58 -100 102 -140 70 -66 142 -109 185 -113 17 -1
47 -5 66 -9 26 -5 16 3 -43 33 -145 75 -252 174 -304 281 -39 81 -45 202 -12
259 66 118 241 116 606 -8 80 -27 147 -52 150 -55 3 -3 -2 -25 -10 -50 -14
-42 -13 -56 4 -56 4 0 15 20 25 45 9 25 19 45 21 45 12 0 103 -43 103 -49 0
-16 -102 -170 -143 -216 -60 -68 -137 -109 -202 -109 -54 0 -98 20 -173 76
-54 41 -76 32 -80 -34 -5 -69 19 -91 101 -96 192 -12 412 88 576 264 l62 65
77 -25 c324 -106 612 -123 846 -49 339 106 640 404 728 720 19 66 22 104 22
248 0 156 -3 177 -28 260 -88 290 -289 476 -641 594 -65 22 -173 50 -241 63
-68 13 -124 27 -124 32 0 5 18 33 40 62 103 137 253 202 365 160 34 -13 60
-36 107 -92 33 -41 66 -73 72 -71 16 5 19 75 5 109 -27 66 -155 124 -249 112
-127 -16 -228 -71 -356 -195 l-80 -79 -190 11 c-104 5 -213 9 -242 7 l-54 -3
-17 55 c-43 139 -118 234 -209 264 -49 17 -139 20 -186 6z m821 -443 c2 -3
-13 -31 -33 -63 -103 -161 -179 -363 -264 -705 -32 -130 -72 -284 -89 -341
-63 -216 -165 -488 -182 -488 -5 0 -31 12 -57 27 l-49 27 40 110 c85 242 203
693 232 885 20 131 28 347 18 458 l-9 92 26 5 c30 5 361 -1 367 -7z m265 -41
c431 -91 688 -292 780 -612 20 -69 23 -101 23 -254 0 -152 -3 -185 -23 -253
-42 -146 -111 -264 -226 -385 -171 -180 -362 -268 -605 -279 -136 -6 -217 4
-346 44 -68 21 -273 100 -284 109 -2 1 13 29 32 61 69 115 74 133 207 673 106
433 152 590 232 793 59 148 41 139 210 103z"/>
<path d="M3152 2278 c3 -9 46 -17 124 -25 65 -6 120 -12 121 -12 1 -1 4 -360
5 -798 4 -875 2 -842 65 -973 57 -119 207 -223 388 -271 105 -28 300 -31 395
-6 111 29 208 83 281 156 113 112 162 245 179 479 5 70 10 404 10 742 0 679
-3 651 63 666 17 4 77 12 131 18 62 7 101 16 104 24 3 9 -66 12 -323 12 -255
0 -326 -3 -323 -12 3 -8 47 -18 119 -26 128 -14 158 -29 172 -81 4 -19 6 -351
4 -740 -4 -784 -3 -775 -72 -919 -103 -217 -377 -335 -646 -278 -131 28 -221
92 -267 188 -49 106 -52 160 -52 1018 l0 798 23 5 c12 3 63 8 112 12 101 7
125 12 125 26 0 5 -148 9 -371 9 -292 0 -370 -3 -367 -12z"/>
<path d="M5160 2280 c0 -6 32 -10 78 -10 97 -1 147 -12 178 -41 l24 -22 0
-927 c0 -630 -3 -937 -11 -958 -14 -40 -40 -49 -178 -65 -73 -7 -116 -17 -119
-24 -3 -10 67 -13 328 -13 261 0 331 3 328 13 -3 7 -46 16 -119 24 -131 15
-156 23 -169 59 -11 28 -14 1792 -3 1781 3 -4 187 -438 407 -964 252 -602 407
-959 416 -961 11 -2 104 234 369 940 195 519 360 954 367 968 11 21 13 -131
14 -892 0 -505 -1 -918 -2 -919 -2 0 -54 -6 -117 -12 -74 -8 -116 -16 -119
-24 -3 -10 74 -13 363 -13 289 0 366 3 363 13 -3 8 -47 16 -129 24 -68 6 -125
12 -126 12 -2 1 -3 444 -3 986 0 542 1 985 3 986 1 0 58 6 126 12 83 8 126 16
129 25 3 10 -46 12 -238 10 l-242 -3 -328 -875 c-180 -481 -332 -875 -336
-877 -5 -1 -174 392 -376 875 l-366 877 -256 3 c-169 1 -256 -1 -256 -8z"/>
<path d="M7792 2278 c3 -9 46 -17 124 -25 65 -6 120 -12 122 -12 6 -2 1 -1971
-5 -1972 -5 -1 -59 -6 -122 -13 -74 -7 -116 -15 -119 -23 -3 -10 78 -13 382
-13 232 0 386 4 386 9 0 14 -24 19 -135 26 -55 3 -115 9 -132 12 l-33 5 0 424
0 424 193 0 c215 0 347 16 450 53 189 69 309 198 352 379 20 84 19 244 -1 322
-58 227 -251 370 -544 406 -129 15 -923 13 -918 -2z m900 -39 c73 -15 163 -65
198 -109 86 -108 115 -229 107 -449 -5 -167 -23 -252 -72 -336 -36 -62 -114
-129 -181 -156 -54 -21 -77 -23 -271 -27 l-213 -4 0 546 0 546 190 0 c104 0
213 -5 242 -11z"/>
</g>
</svg>
